<svg width="21" height="21" viewBox="0 0 21 21" fill="none" xmlns="http://www.w3.org/2000/svg">
<path d="M9.04037 15.2943L16.3841 7.95052L14.9258 6.49219L9.04037 12.3776L6.07162 9.40885L4.61328 10.8672L9.04037 15.2943ZM10.4987 20.9193C9.05773 20.9193 7.70356 20.6457 6.4362 20.0984C5.16884 19.5519 4.06641 18.8099 3.12891 17.8724C2.19141 16.9349 1.44939 15.8325 0.902865 14.5651C0.355642 13.2977 0.0820312 11.9436 0.0820312 10.5026C0.0820312 9.06163 0.355642 7.70747 0.902865 6.4401C1.44939 5.17274 2.19141 4.07031 3.12891 3.13281C4.06641 2.19531 5.16884 1.45295 6.4362 0.905729C7.70356 0.359201 9.05773 0.0859375 10.4987 0.0859375C11.9397 0.0859375 13.2938 0.359201 14.5612 0.905729C15.8286 1.45295 16.931 2.19531 17.8685 3.13281C18.806 4.07031 19.548 5.17274 20.0945 6.4401C20.6418 7.70747 20.9154 9.06163 20.9154 10.5026C20.9154 11.9436 20.6418 13.2977 20.0945 14.5651C19.548 15.8325 18.806 16.9349 17.8685 17.8724C16.931 18.8099 15.8286 19.5519 14.5612 20.0984C13.2938 20.6457 11.9397 20.9193 10.4987 20.9193ZM10.4987 18.8359C12.8251 18.8359 14.7956 18.0286 16.4102 16.4141C18.0247 14.7995 18.832 12.829 18.832 10.5026C18.832 8.17622 18.0247 6.20573 16.4102 4.59115C14.7956 2.97656 12.8251 2.16927 10.4987 2.16927C8.17231 2.16927 6.20182 2.97656 4.58724 4.59115C2.97266 6.20573 2.16536 8.17622 2.16536 10.5026C2.16536 12.829 2.97266 14.7995 4.58724 16.4141C6.20182 18.0286 8.17231 18.8359 10.4987 18.8359Z" fill="white"/>
</svg>
