<svg width="22" height="22" viewBox="0 0 22 22" fill="none" xmlns="http://www.w3.org/2000/svg">
<path d="M9.55022 15.8898L17.2127 8.22736L15.691 6.70574L9.55022 12.8466L6.45263 9.74898L4.93101 11.2706L9.55022 15.8898ZM11.0718 21.7589C9.56833 21.7589 8.1554 21.4734 6.83304 20.9025C5.51068 20.3322 4.36041 19.558 3.38222 18.5798C2.40404 17.6016 1.62982 16.4514 1.05958 15.129C0.48861 13.8066 0.203125 12.3937 0.203125 10.8902C0.203125 9.38669 0.48861 7.97376 1.05958 6.6514C1.62982 5.32904 2.40404 4.17877 3.38222 3.20058C4.36041 2.2224 5.51068 1.44782 6.83304 0.876852C8.1554 0.306607 9.56833 0.0214844 11.0718 0.0214844C12.5753 0.0214844 13.9883 0.306607 15.3106 0.876852C16.633 1.44782 17.7833 2.2224 18.7614 3.20058C19.7396 4.17877 20.5138 5.32904 21.0841 6.6514C21.6551 7.97376 21.9405 9.38669 21.9405 10.8902C21.9405 12.3937 21.6551 13.8066 21.0841 15.129C20.5138 16.4514 19.7396 17.6016 18.7614 18.5798C17.7833 19.558 16.633 20.3322 15.3106 20.9025C13.9883 21.4734 12.5753 21.7589 11.0718 21.7589Z" fill="#00B3E3"/>
</svg>
